Topo_narrow_20170110.ufo
<glyph name="parenleft" format="1">
  <advance width="335"/>
  <unicode hex="0028"/>
  <outline>
    <contour>
      <point x="273" y="771" type="curve"/>
      <point x="176" y="771" type="line"/>
      <point x="124" y="676"/>
      <point x="62" y="546"/>
      <point x="62" y="379" type="curve"/>
      <point x="62" y="343" type="line"/>
      <point x="62" y="176"/>
      <point x="122" y="35"/>
      <point x="179" y="-80" type="curve"/>
      <point x="273" y="-80" type="line"/>
      <point x="217" y="40"/>
      <point x="168" y="188"/>
      <point x="168" y="338" type="curve"/>
      <point x="168" y="384" type="line"/>
      <point x="168" y="534"/>
      <point x="223" y="671"/>
    </contour>
  </outline>
</glyph>
<glyph name="comma" format="1">
  <advance width="208"/>
  <unicode hex="002C"/>
  <outline>
    <contour>
      <point x="129" y="20" type="curve" smooth="yes"/>
      <point x="178" y="20"/>
      <point x="205" y="42"/>
      <point x="205" y="86" type="curve" smooth="yes"/>
      <point x="205" y="130"/>
      <point x="178" y="152"/>
      <point x="129" y="152" type="curve" smooth="yes"/>
      <point x="79" y="152"/>
      <point x="54" y="130"/>
      <point x="54" y="86" type="curve" smooth="yes"/>
      <point x="54" y="42"/>
      <point x="80" y="20"/>
    </contour>
    <contour>
      <point x="131" y="88" type="line"/>
      <point x="131" y="-23"/>
      <point x="93" y="-64"/>
      <point x="28" y="-123" type="curve"/>
      <point x="115" y="-124" type="line"/>
      <point x="172" y="-70"/>
      <point x="205" y="-9"/>
      <point x="205" y="88" type="curve"/>
    </contour>
  </outline>
</glyph>
<glyph name="period" format="1">
  <advance width="269"/>
  <unicode hex="002E"/>
  <outline>
    <contour>
      <point x="139" y="-10" type="curve" smooth="yes"/>
      <point x="188" y="-10"/>
      <point x="216" y="14"/>
      <point x="216" y="58" type="curve" smooth="yes"/>
      <point x="216" y="102"/>
      <point x="188" y="126"/>
      <point x="139" y="126" type="curve" smooth="yes"/>
      <point x="89" y="126"/>
      <point x="63" y="102"/>
      <point x="63" y="58" type="curve" smooth="yes"/>
      <point x="63" y="14"/>
      <point x="90" y="-10"/>
    </contour>
  </outline>
</glyph>
<glyph name="zero" format="1">
  <advance width="628"/>
  <unicode hex="0030"/>
  <outline>
    <contour>
      <point x="164" y="-12"/>
      <point x="78" y="120"/>
      <point x="78" y="393" type="curve" smooth="yes"/>
      <point x="78" y="630"/>
      <point x="163" y="721"/>
      <point x="316" y="721" type="curve" smooth="yes"/>
      <point x="469" y="721"/>
      <point x="550" y="630"/>
      <point x="550" y="393" type="curve" smooth="yes"/>
      <point x="550" y="120"/>
      <point x="468" y="-12"/>
      <point x="316" y="-12" type="curve"/>
    </contour>
    <contour>
      <point x="219" y="631"/>
      <point x="181" y="560"/>
      <point x="181" y="393" type="curve" smooth="yes"/>
      <point x="181" y="171"/>
      <point x="228" y="72"/>
      <point x="316" y="72" type="curve"/>
      <point x="404" y="72"/>
      <point x="447" y="171"/>
      <point x="447" y="393" type="curve" smooth="yes"/>
      <point x="447" y="560"/>
      <point x="413" y="631"/>
      <point x="316" y="631" type="curve"/>
    </contour>
  </outline>
</glyph>
<glyph name="six" format="1">
  <advance width="602"/>
  <unicode hex="0036"/>
  <outline>
    <contour>
      <point x="102" y="346" type="line"/>
      <point x="143" y="382"/>
      <point x="221" y="463"/>
      <point x="317" y="463" type="curve" smooth="yes"/>
      <point x="458" y="463"/>
      <point x="545" y="398"/>
      <point x="545" y="240" type="curve" smooth="yes"/>
      <point x="545" y="116"/>
      <point x="462" y="-12"/>
      <point x="318" y="-12" type="curve" smooth="yes"/>
      <point x="164" y="-12"/>
      <point x="78" y="89"/>
      <point x="78" y="298" type="curve"/>
      <point x="78" y="617"/>
      <point x="167" y="721"/>
      <point x="345" y="721" type="curve" smooth="yes"/>
      <point x="423" y="721"/>
      <point x="472" y="701"/>
      <point x="504" y="684" type="curve"/>
      <point x="504" y="585" type="line"/>
      <point x="457" y="615"/>
      <point x="404" y="631"/>
      <point x="344" y="631" type="curve" smooth="yes"/>
      <point x="219" y="631"/>
      <point x="185" y="539"/>
      <point x="185" y="369" type="curve"/>
    </contour>
    <contour>
      <point x="317" y="376" type="curve" smooth="yes"/>
      <point x="226" y="376"/>
      <point x="184" y="313"/>
      <point x="184" y="240" type="curve" smooth="yes"/>
      <point x="184" y="146"/>
      <point x="228" y="72"/>
      <point x="317" y="72" type="curve" smooth="yes"/>
      <point x="406" y="72"/>
      <point x="442" y="147"/>
      <point x="442" y="240" type="curve" smooth="yes"/>
      <point x="442" y="342"/>
      <point x="399" y="376"/>
    </contour>
  </outline>
</glyph>
<glyph name="seven" format="1">
  <advance width="450"/>
  <unicode hex="0037"/>
  <outline>
    <contour>
      <point x="162" y="0" type="line"/>
      <point x="205" y="126"/>
      <point x="339" y="457"/>
      <point x="395" y="585" type="curve"/>
      <point x="395" y="706" type="line"/>
      <point x="18" y="706" type="line"/>
      <point x="18" y="612" type="line"/>
      <point x="362" y="612" type="line"/>
      <point x="330" y="692" type="line"/>
      <point x="260" y="531"/>
      <point x="104" y="131"/>
      <point x="61" y="0" type="curve"/>
    </contour>
  </outline>
</glyph>
<glyph name="nine" format="1">
  <advance width="576"/>
  <unicode hex="0039"/>
  <outline>
    <contour>
      <point x="266" y="327" type="curve" smooth="yes"/>
      <point x="357" y="327"/>
      <point x="408" y="404"/>
      <point x="408" y="479" type="curve" smooth="yes"/>
      <point x="408" y="566"/>
      <point x="369" y="631"/>
      <point x="266" y="631" type="curve" smooth="yes"/>
      <point x="166" y="631"/>
      <point x="133" y="569"/>
      <point x="133" y="493" type="curve" smooth="yes"/>
      <point x="133" y="401"/>
      <point x="176" y="327"/>
    </contour>
    <contour>
      <point x="446" y="384" type="line"/>
      <point x="422" y="299"/>
      <point x="366" y="241"/>
      <point x="266.0" y="241.0" type="curve" smooth="yes"/>
      <point x="118" y="241"/>
      <point x="30" y="355"/>
      <point x="30.0" y="493.0" type="curve" smooth="yes"/>
      <point x="30" y="627"/>
      <point x="111" y="721"/>
      <point x="265.0" y="721.0" type="curve" smooth="yes"/>
      <point x="432" y="721"/>
      <point x="502" y="622"/>
      <point x="502" y="428" type="curve"/>
      <point x="502" y="76"/>
      <point x="403" y="-12"/>
      <point x="225" y="-12" type="curve" smooth="yes"/>
      <point x="153" y="-12"/>
      <point x="106" y="9"/>
      <point x="74" y="26" type="curve"/>
      <point x="74" y="119" type="line"/>
      <point x="121" y="89"/>
      <point x="166" y="73"/>
      <point x="226" y="73" type="curve" smooth="yes"/>
      <point x="322" y="73"/>
      <point x="407" y="125"/>
      <point x="407" y="313" type="curve"/>
    </contour>
  </outline>
</glyph>
<glyph name="E" format="1">
  <advance width="496"/>
  <unicode hex="0045"/>
  <outline>
    <contour>
      <point x="183" y="0"/>
      <point x="183" y="706"/>
      <point x="183" y="706" type="curve"/>
      <point x="80" y="706" type="line"/>
      <point x="80" y="706"/>
      <point x="80" y="0"/>
      <point x="80" y="0" type="curve"/>
      <point x="183" y="0" type="line"/>
    </contour>
    <contour>
      <point x="437" y="614"/>
      <point x="437" y="706"/>
      <point x="437" y="706" type="curve"/>
      <point x="175" y="706" type="line"/>
      <point x="175" y="706"/>
      <point x="175" y="614"/>
      <point x="175" y="614" type="curve"/>
      <point x="437" y="614" type="line"/>
    </contour>
    <contour>
      <point x="412" y="308"/>
      <point x="412" y="398"/>
      <point x="412" y="398" type="curve"/>
      <point x="175" y="398" type="line"/>
      <point x="175" y="398"/>
      <point x="175" y="308"/>
      <point x="175" y="308" type="curve"/>
      <point x="412" y="308" type="line"/>
    </contour>
    <contour>
      <point x="449" y="0"/>
      <point x="449" y="92"/>
      <point x="449" y="92" type="curve"/>
      <point x="175" y="92" type="line"/>
      <point x="175" y="92"/>
      <point x="175" y="0"/>
      <point x="175" y="0" type="curve"/>
      <point x="449" y="0" type="line"/>
    </contour>
  </outline>
</glyph>
<glyph name="M" format="1">
  <advance width="733"/>
  <unicode hex="004D"/>
  <outline>
    <contour>
      <point x="80" y="706" type="line"/>
      <point x="80" y="0" type="line"/>
      <point x="182" y="0" type="line"/>
      <point x="182" y="704" type="line"/>
      <point x="168" y="704" type="line"/>
      <point x="286" y="195" type="line"/>
      <point x="447" y="195" type="line"/>
      <point x="565" y="704" type="line"/>
      <point x="551" y="704" type="line"/>
      <point x="551" y="0" type="line"/>
      <point x="653" y="0" type="line"/>
      <point x="653" y="706" type="line"/>
      <point x="464" y="706" type="line"/>
      <point x="354" y="196" type="line"/>
      <point x="379" y="196" type="line"/>
      <point x="269" y="706" type="line"/>
    </contour>
  </outline>
</glyph>
<glyph name="P" format="1">
  <advance width="519"/>
  <unicode hex="0050"/>
  <outline>
    <contour>
      <point x="157" y="706" type="line"/>
      <point x="303" y="706" type="line"/>
      <point x="435" y="706"/>
      <point x="491" y="637"/>
      <point x="491" y="523" type="curve" smooth="yes"/>
      <point x="491" y="379"/>
      <point x="385" y="291"/>
      <point x="226" y="291" type="curve"/>
      <point x="90" y="291" type="line"/>
      <point x="90" y="383" type="line"/>
      <point x="204" y="383" type="line"/>
      <point x="339" y="383"/>
      <point x="386" y="423"/>
      <point x="386" y="523" type="curve" smooth="yes"/>
      <point x="386" y="589"/>
      <point x="356" y="614"/>
      <point x="258" y="614" type="curve"/>
      <point x="157" y="614" type="line"/>
    </contour>
    <contour>
      <point x="183" y="706"/>
      <point x="183" y="0"/>
      <point x="183" y="0" type="curve"/>
      <point x="80" y="0" type="line"/>
      <point x="80" y="0"/>
      <point x="80" y="706"/>
      <point x="80" y="706" type="curve"/>
      <point x="183" y="706" type="line"/>
    </contour>
  </outline>
</glyph>
<glyph name="S" format="1">
  <advance width="464"/>
  <unicode hex="0053"/>
  <outline>
    <contour>
      <point x="410" y="286"/>
      <point x="367" y="329"/>
      <point x="264" y="397" type="curve" smooth="yes"/>
      <point x="198" y="441"/>
      <point x="136" y="471"/>
      <point x="136" y="534" type="curve" smooth="yes"/>
      <point x="136" y="599"/>
      <point x="178" y="634"/>
      <point x="245" y="634" type="curve" smooth="yes"/>
      <point x="307" y="634"/>
      <point x="336" y="623"/>
      <point x="381" y="603" type="curve"/>
      <point x="381" y="698" type="line"/>
      <point x="344" y="711"/>
      <point x="311" y="721"/>
      <point x="246" y="721" type="curve" smooth="yes"/>
      <point x="134" y="721"/>
      <point x="31" y="662"/>
      <point x="31" y="536" type="curve" smooth="yes"/>
      <point x="31" y="417"/>
      <point x="124" y="373"/>
      <point x="184" y="332" type="curve" smooth="yes"/>
      <point x="272" y="272"/>
      <point x="300" y="254"/>
      <point x="300" y="190" type="curve"/>
      <point x="300" y="125"/>
      <point x="258" y="80"/>
      <point x="181" y="80" type="curve" smooth="yes"/>
      <point x="122" y="80"/>
      <point x="79" y="93"/>
      <point x="35" y="120" type="curve"/>
      <point x="35" y="18" type="line"/>
      <point x="87" y="-2"/>
      <point x="117" y="-12"/>
      <point x="182" y="-12" type="curve" smooth="yes"/>
      <point x="325" y="-12"/>
      <point x="410" y="80"/>
      <point x="410" y="190" type="curve" smooth="yes"/>
    </contour>
  </outline>
</glyph>
<glyph name="T" format="1">
  <advance width="445"/>
  <unicode hex="0054"/>
  <outline>
    <contour>
      <point x="439" y="616"/>
      <point x="439" y="706"/>
      <point x="439" y="706" type="curve"/>
      <point x="6" y="706" type="line"/>
      <point x="6" y="706"/>
      <point x="6" y="616"/>
      <point x="6" y="616" type="curve"/>
      <point x="439" y="616" type="line"/>
    </contour>
    <contour>
      <point x="275" y="0"/>
      <point x="275" y="706"/>
      <point x="275" y="706" type="curve"/>
      <point x="170" y="706" type="line"/>
      <point x="170" y="706"/>
      <point x="170" y="0"/>
      <point x="170" y="0" type="curve"/>
      <point x="275" y="0" type="line"/>
    </contour>
  </outline>
</glyph>
<glyph name="W" format="1">
  <advance width="805"/>
  <unicode hex="0057"/>
  <outline>
    <contour>
      <point x="665" y="706" type="line"/>
      <point x="585" y="6" type="line"/>
      <point x="601" y="6" type="line"/>
      <point x="477" y="631" type="line"/>
      <point x="477" y="631"/>
      <point x="328" y="631"/>
      <point x="328" y="631" type="curve"/>
      <point x="204" y="6" type="line"/>
      <point x="220" y="6" type="line"/>
      <point x="140" y="706" type="line"/>
      <point x="33" y="706" type="line"/>
      <point x="120" y="0" type="line"/>
      <point x="303" y="0" type="line"/>
      <point x="303" y="0"/>
      <point x="416" y="631"/>
      <point x="416" y="631" type="curve"/>
      <point x="389" y="631" type="line"/>
      <point x="502" y="0" type="line"/>
      <point x="685" y="0" type="line"/>
      <point x="772" y="706" type="line"/>
    </contour>
  </outline>
</glyph>
<glyph name="X" format="1">
  <advance width="500"/>
  <unicode hex="0058"/>
  <outline>
    <contour>
      <point x="122" y="710" type="line"/>
      <point x="18" y="710" type="line"/>
      <point x="155" y="391" type="line"/>
      <point x="339" y="391" type="line"/>
      <point x="476" y="710" type="line"/>
      <point x="372" y="710" type="line"/>
      <point x="243" y="395" type="line"/>
      <point x="251" y="395" type="line"/>
    </contour>
    <contour>
      <point x="122" y="0" type="line"/>
      <point x="251" y="395" type="line"/>
      <point x="243" y="395" type="line"/>
      <point x="372" y="0" type="line"/>
      <point x="476" y="0" type="line"/>
      <point x="339" y="399" type="line"/>
      <point x="155" y="399" type="line"/>
      <point x="18" y="0" type="line"/>
    </contour>
  </outline>
</glyph>
<glyph name="Z" format="1">
  <advance width="502"/>
  <unicode hex="005A"/>
  <outline>
    <contour>
      <point x="85" y="39"/>
      <point x="474" y="545"/>
      <point x="474" y="545" type="curve"/>
      <point x="474" y="688" type="line"/>
      <point x="444" y="688" type="line"/>
      <point x="444" y="667" type="line"/>
      <point x="444" y="667"/>
      <point x="55" y="161"/>
      <point x="55" y="161" type="curve"/>
      <point x="55" y="8" type="line"/>
      <point x="85" y="8" type="line"/>
      <point x="85" y="39" type="line"/>
    </contour>
    <contour>
      <point x="478" y="0"/>
      <point x="478" y="92"/>
      <point x="478" y="92" type="curve"/>
      <point x="66" y="92" type="line"/>
      <point x="55" y="67" type="line"/>
      <point x="55" y="67"/>
      <point x="55" y="0"/>
      <point x="55" y="0" type="curve"/>
      <point x="478" y="0" type="line"/>
    </contour>
    <contour>
      <point x="474" y="646"/>
      <point x="474" y="706"/>
      <point x="474" y="706" type="curve"/>
      <point x="54" y="706" type="line"/>
      <point x="54" y="706"/>
      <point x="54" y="614"/>
      <point x="54" y="614" type="curve"/>
      <point x="461" y="614" type="line"/>
      <point x="474" y="646" type="line"/>
    </contour>
  </outline>
</glyph>
<glyph name="grave" format="1">
  <advance width="264"/>
  <unicode hex="0060"/>
  <outline>
    <contour>
      <point x="42" y="751" type="line"/>
      <point x="170" y="751" type="line"/>
      <point x="170" y="751"/>
      <point x="227" y="589"/>
      <point x="227" y="589" type="curve"/>
      <point x="143" y="589" type="line"/>
    </contour>
  </outline>
</glyph>
<glyph name="d" format="1">
  <advance width="534"/>
  <unicode hex="0064"/>
  <outline>
    <contour>
      <point x="412.0" y="460.0" type="curve"/>
      <point x="365.0" y="500.0"/>
      <point x="306.0" y="538.0"/>
      <point x="229.0" y="538.0" type="curve" smooth="yes"/>
      <point x="94.0" y="538.0"/>
      <point x="56.0" y="426.0"/>
      <point x="56.0" y="295.0" type="curve" smooth="yes"/>
      <point x="56.0" y="126.0"/>
      <point x="104.0" y="-12.0"/>
      <point x="232.0" y="-12.0" type="curve" smooth="yes"/>
      <point x="322.0" y="-12.0"/>
      <point x="378" y="49"/>
      <point x="412" y="93" type="curve"/>
      <point x="412" y="93"/>
      <point x="412.0" y="460.0"/>
    </contour>
    <contour>
      <point x="356" y="126" type="line"/>
      <point x="330" y="92"/>
      <point x="302" y="71"/>
      <point x="251" y="71" type="curve" smooth="yes"/>
      <point x="187" y="71"/>
      <point x="159" y="149"/>
      <point x="159" y="295" type="curve" smooth="yes"/>
      <point x="159" y="405"/>
      <point x="178" y="454"/>
      <point x="250" y="454" type="curve" smooth="yes"/>
      <point x="294" y="454"/>
      <point x="330" y="441"/>
      <point x="356" y="422" type="curve"/>
    </contour>
    <contour>
      <point x="355" y="746" type="line"/>
      <point x="355" y="101" type="line" smooth="yes"/>
      <point x="383" y="80" type="line"/>
      <point x="388" y="59"/>
      <point x="380" y="28"/>
      <point x="386" y="0" type="curve"/>
      <point x="476" y="0" type="line"/>
      <point x="466" y="58"/>
      <point x="456" y="112"/>
      <point x="456" y="191" type="curve" smooth="yes"/>
      <point x="456" y="746" type="line"/>
    </contour>
  </outline>
</glyph>
<glyph name="f" format="1">
  <advance width="328"/>
  <unicode hex="0066"/>
  <outline>
    <contour>
      <point x="94" y="0" type="line"/>
      <point x="195" y="0" type="line"/>
      <point x="195" y="509" type="line"/>
      <point x="195" y="509"/>
      <point x="94" y="509"/>
      <point x="94" y="509" type="curve"/>
    </contour>
    <contour>
      <point x="317" y="515" type="line"/>
      <point x="17" y="515" type="line"/>
      <point x="17" y="432" type="line"/>
      <point x="317" y="432" type="line"/>
    </contour>
    <contour>
      <point x="334" y="747" type="line"/>
      <point x="309" y="754"/>
      <point x="280" y="758"/>
      <point x="251" y="758" type="curve" smooth="yes"/>
      <point x="141" y="758"/>
      <point x="94" y="706"/>
      <point x="94" y="594" type="curve" smooth="yes"/>
      <point x="94" y="505" type="line"/>
      <point x="195" y="505" type="line"/>
      <point x="195" y="583" type="line" smooth="yes"/>
      <point x="195" y="654"/>
      <point x="212" y="676"/>
      <point x="268" y="676" type="curve" smooth="yes"/>
      <point x="298" y="676"/>
      <point x="317" y="669"/>
      <point x="334" y="661" type="curve"/>
    </contour>
  </outline>
</glyph>
<glyph name="j" format="1">
  <advance width="224"/>
  <unicode hex="006A"/>
  <outline>
    <contour>
      <point x="-78" y="-218" type="line"/>
      <point x="-53" y="-225"/>
      <point x="-24" y="-228"/>
      <point x="5" y="-228" type="curve" smooth="yes"/>
      <point x="115" y="-228"/>
      <point x="162" y="-176"/>
      <point x="162" y="-64" type="curve" smooth="yes"/>
      <point x="162" y="526" type="line"/>
      <point x="61" y="526" type="line"/>
      <point x="61" y="-53" type="line" smooth="yes"/>
      <point x="61" y="-124"/>
      <point x="44" y="-145"/>
      <point x="-12" y="-145" type="curve" smooth="yes"/>
      <point x="-33" y="-145"/>
      <point x="-59" y="-139"/>
      <point x="-78" y="-132" type="curve"/>
    </contour>
    <contour>
      <point x="109" y="613" type="curve" smooth="yes"/>
      <point x="160" y="613"/>
      <point x="184" y="634"/>
      <point x="184" y="674" type="curve" smooth="yes"/>
      <point x="184" y="714"/>
      <point x="160" y="735"/>
      <point x="109" y="735" type="curve" smooth="yes"/>
      <point x="57" y="735"/>
      <point x="35" y="714"/>
      <point x="35" y="674" type="curve" smooth="yes"/>
      <point x="35" y="634"/>
      <point x="58" y="613"/>
    </contour>
  </outline>
</glyph>
<glyph name="l" format="1">
  <advance width="284"/>
  <unicode hex="006C"/>
  <outline>
    <contour>
      <point x="78" y="746" type="line"/>
      <point x="78" y="197" type="line"/>
      <point x="78" y="197"/>
      <point x="179" y="197"/>
      <point x="179" y="197" type="curve"/>
      <point x="179" y="746" type="line"/>
    </contour>
    <contour>
      <point x="292" y="81" type="line"/>
      <point x="277" y="76"/>
      <point x="261.0" y="73.0"/>
      <point x="245.0" y="73.0" type="curve" smooth="yes"/>
      <point x="192.0" y="73.0"/>
      <point x="179.0" y="96.0"/>
      <point x="179.0" y="165.0" type="curve" smooth="yes"/>
      <point x="179.0" y="181.0"/>
      <point x="179.0" y="201.0"/>
      <point x="179.0" y="201.0" type="curve"/>
      <point x="78.0" y="201.0" type="line"/>
      <point x="78.0" y="154.0" type="line" smooth="yes"/>
      <point x="78.0" y="42.0"/>
      <point x="119.0" y="-10.0"/>
      <point x="228.0" y="-10.0" type="curve" smooth="yes"/>
      <point x="249.0" y="-10.0"/>
      <point x="270" y="-8"/>
      <point x="292" y="-2" type="curve"/>
    </contour>
  </outline>
</glyph>
<glyph name="p" format="1">
  <advance width="533"/>
  <unicode hex="0070"/>
  <outline>
    <contour>
      <point x="179" y="-216" type="line"/>
      <point x="179" y="424" type="line" smooth="yes"/>
      <point x="151" y="446" type="line"/>
      <point x="146" y="470"/>
      <point x="154" y="493"/>
      <point x="148" y="526" type="curve"/>
      <point x="58" y="526" type="line"/>
      <point x="66" y="476"/>
      <point x="78" y="419"/>
      <point x="78" y="349" type="curve" smooth="yes"/>
      <point x="78" y="-216" type="line"/>
    </contour>
    <contour>
      <point x="122" y="18" type="curve"/>
      <point x="172" y="3"/>
      <point x="221" y="-12"/>
      <point x="271" y="-12" type="curve" smooth="yes"/>
      <point x="384" y="-12"/>
      <point x="479" y="84"/>
      <point x="479" y="295" type="curve" smooth="yes"/>
      <point x="479" y="466"/>
      <point x="423" y="538"/>
      <point x="315" y="538" type="curve" smooth="yes"/>
      <point x="237" y="538"/>
      <point x="172" y="475"/>
      <point x="124" y="429" type="curve"/>
      <point x="124" y="429"/>
      <point x="122" y="18"/>
    </contour>
    <contour>
      <point x="179" y="389" type="line"/>
      <point x="206" y="418"/>
      <point x="241" y="454"/>
      <point x="290" y="454" type="curve" smooth="yes"/>
      <point x="358" y="454"/>
      <point x="376" y="404"/>
      <point x="376" y="295" type="curve" smooth="yes"/>
      <point x="376" y="133"/>
      <point x="335" y="71"/>
      <point x="256" y="71" type="curve" smooth="yes"/>
      <point x="231" y="71"/>
      <point x="210" y="75"/>
      <point x="179" y="82" type="curve"/>
    </contour>
  </outline>
</glyph>
<glyph name="s" format="1">
  <advance width="405"/>
  <unicode hex="0073"/>
  <outline>
    <contour>
      <point x="363" y="217"/>
      <point x="337" y="258"/>
      <point x="242.0" y="295.0" type="curve" smooth="yes"/>
      <point x="175" y="321"/>
      <point x="145" y="332"/>
      <point x="145" y="385" type="curve" smooth="yes"/>
      <point x="145" y="430"/>
      <point x="178" y="454"/>
      <point x="233" y="454" type="curve" smooth="yes"/>
      <point x="287" y="454"/>
      <point x="309" y="442"/>
      <point x="348" y="430" type="curve"/>
      <point x="348" y="524" type="line"/>
      <point x="313" y="534"/>
      <point x="279" y="538"/>
      <point x="232" y="538" type="curve" smooth="yes"/>
      <point x="122" y="538"/>
      <point x="45" y="476"/>
      <point x="45" y="385" type="curve" smooth="yes"/>
      <point x="45" y="310"/>
      <point x="83.0" y="260.0"/>
      <point x="162.0" y="229.0" type="curve" smooth="yes"/>
      <point x="249.0" y="195.0"/>
      <point x="268" y="178"/>
      <point x="268" y="143" type="curve"/>
      <point x="268" y="104"/>
      <point x="240" y="71"/>
      <point x="188" y="71" type="curve" smooth="yes"/>
      <point x="147" y="71"/>
      <point x="84" y="92"/>
      <point x="50" y="108" type="curve"/>
      <point x="50" y="16" type="line"/>
      <point x="90" y="2"/>
      <point x="143" y="-12"/>
      <point x="188" y="-12" type="curve" smooth="yes"/>
      <point x="292" y="-12"/>
      <point x="363" y="50"/>
      <point x="363" y="143" type="curve" smooth="yes"/>
    </contour>
  </outline>
</glyph>
<glyph name="t" format="1">
  <advance width="339"/>
  <unicode hex="0074"/>
  <outline>
    <contour>
      <point x="88" y="628" type="line"/>
      <point x="88" y="197" type="line"/>
      <point x="88" y="197"/>
      <point x="189" y="197"/>
      <point x="189" y="197" type="curve"/>
      <point x="189" y="640" type="line"/>
    </contour>
    <contour>
      <point x="309" y="515" type="line"/>
      <point x="11" y="515" type="line"/>
      <point x="11" y="432" type="line"/>
      <point x="309" y="432" type="line"/>
    </contour>
    <contour>
      <point x="309" y="83" type="line"/>
      <point x="292" y="78"/>
      <point x="274" y="73"/>
      <point x="255" y="73" type="curve" smooth="yes"/>
      <point x="202" y="73"/>
      <point x="189" y="96"/>
      <point x="189" y="165" type="curve" smooth="yes"/>
      <point x="189" y="181"/>
      <point x="189" y="201"/>
      <point x="189" y="201" type="curve"/>
      <point x="88" y="201" type="line"/>
      <point x="88" y="154" type="line" smooth="yes"/>
      <point x="88" y="42"/>
      <point x="129" y="-10"/>
      <point x="238" y="-10" type="curve" smooth="yes"/>
      <point x="262" y="-10"/>
      <point x="284" y="-7"/>
      <point x="309" y="0" type="curve"/>
    </contour>
  </outline>
</glyph>
<glyph name="u" format="1">
  <advance width="528"/>
  <unicode hex="0075"/>
  <outline>
    <contour>
      <point x="350" y="526" type="line"/>
      <point x="350" y="102" type="line" smooth="yes"/>
      <point x="378" y="80" type="line"/>
      <point x="383" y="56"/>
      <point x="375" y="33"/>
      <point x="381" y="0" type="curve"/>
      <point x="471" y="0" type="line"/>
      <point x="463" y="50"/>
      <point x="451" y="107"/>
      <point x="451" y="177" type="curve" smooth="yes"/>
      <point x="451" y="526" type="line"/>
    </contour>
    <contour>
      <point x="350" y="133" type="curve"/>
      <point x="320" y="103"/>
      <point x="287" y="71"/>
      <point x="240" y="71" type="curve" smooth="yes"/>
      <point x="188" y="71"/>
      <point x="175" y="101"/>
      <point x="175" y="174" type="curve" smooth="yes"/>
      <point x="175" y="526" type="line"/>
      <point x="74" y="526" type="line"/>
      <point x="74" y="152" type="line" smooth="yes"/>
      <point x="74" y="41"/>
      <point x="125" y="-12"/>
      <point x="211" y="-12" type="curve" smooth="yes"/>
      <point x="286" y="-12"/>
      <point x="336" y="34"/>
      <point x="379" y="73" type="curve"/>
      <point x="379" y="236" type="line"/>
      <point x="350" y="236" type="line"/>
      <point x="350" y="236"/>
      <point x="350" y="133"/>
    </contour>
  </outline>
</glyph>
<glyph name="x" format="1">
  <advance width="429"/>
  <unicode hex="0078"/>
  <outline>
    <contour>
      <point x="310" y="0" type="line"/>
      <point x="419" y="0" type="line"/>
      <point x="269" y="263" type="line"/>
      <point x="176" y="263" type="line"/>
      <point x="223" y="159" type="line"/>
    </contour>
    <contour>
      <point x="120" y="0" type="line"/>
      <point x="200" y="159" type="line"/>
      <point x="245" y="271" type="line"/>
      <point x="157" y="270" type="line"/>
      <point x="10" y="0" type="line"/>
    </contour>
    <contour>
      <point x="126" y="526" type="line"/>
      <point x="14" y="526" type="line"/>
      <point x="162" y="253" type="line"/>
      <point x="248" y="253" type="line"/>
      <point x="199" y="368" type="line"/>
    </contour>
    <contour>
      <point x="304" y="526" type="line"/>
      <point x="230" y="368" type="line"/>
      <point x="178" y="253" type="line"/>
      <point x="267" y="253" type="line"/>
      <point x="414" y="526" type="line"/>
    </contour>
  </outline>
</glyph>
<glyph name="y" format="1">
  <advance width="454"/>
  <unicode hex="0079"/>
  <outline>
    <contour>
      <point x="57" y="-218" type="line"/>
      <point x="82" y="-225"/>
      <point x="104" y="-228"/>
      <point x="133" y="-228" type="curve" smooth="yes"/>
      <point x="243" y="-228"/>
      <point x="273" y="-167"/>
      <point x="298" y="-57" type="curve" smooth="yes"/>
      <point x="337" y="114" type="line"/>
      <point x="243" y="115" type="line"/>
      <point x="207" y="-52" type="line" smooth="yes"/>
      <point x="192" y="-122"/>
      <point x="185" y="-145"/>
      <point x="123" y="-145" type="curve" smooth="yes"/>
      <point x="102" y="-145"/>
      <point x="76" y="-139"/>
      <point x="57" y="-132" type="curve"/>
    </contour>
    <contour>
      <point x="143" y="0" type="line"/>
      <point x="311" y="0" type="line"/>
      <point x="432" y="526" type="line"/>
      <point x="332" y="526" type="line"/>
      <point x="225" y="32" type="line"/>
      <point x="229" y="32" type="line"/>
      <point x="122" y="526" type="line"/>
      <point x="22" y="526" type="line"/>
    </contour>
  </outline>
</glyph>
<glyph name="z" format="1">
  <advance width="423"/>
  <unicode hex="007A"/>
  <outline>
    <contour>
      <point x="374" y="85" type="line"/>
      <point x="72" y="85" type="line"/>
      <point x="51" y="65" type="line"/>
      <point x="51" y="0" type="line"/>
      <point x="374" y="0" type="line"/>
    </contour>
    <contour>
      <point x="311" y="457" type="line"/>
      <point x="51" y="125" type="line"/>
      <point x="51" y="52" type="line"/>
      <point x="111" y="52" type="line"/>
      <point x="111" y="65" type="line"/>
      <point x="371" y="397" type="line"/>
      <point x="371" y="465" type="line"/>
      <point x="311" y="465" type="line"/>
    </contour>
    <contour>
      <point x="371" y="526" type="line"/>
      <point x="45" y="526" type="line"/>
      <point x="45" y="437" type="line"/>
      <point x="366" y="437" type="line"/>
      <point x="371" y="443" type="line"/>
    </contour>
  </outline>
</glyph>
<glyph name="exclamdown" format="1">
  <advance width="306"/>
  <unicode hex="00A1"/>
  <outline>
    <contour>
      <point x="212" y="-352" type="line"/>
      <point x="212" y="-296" type="line" smooth="yes"/>
      <point x="212" y="-144"/>
      <point x="198" y="102"/>
      <point x="194" y="169" type="curve"/>
      <point x="110" y="169" type="line"/>
      <point x="106" y="102"/>
      <point x="92" y="-145"/>
      <point x="92" y="-296" type="curve" smooth="yes"/>
      <point x="92" y="-352" type="line"/>
    </contour>
    <contour>
      <point x="152" y="426" type="curve" smooth="yes"/>
      <point x="99" y="426"/>
      <point x="81" y="403"/>
      <point x="81" y="360" type="curve" smooth="yes"/>
      <point x="81" y="317"/>
      <point x="99" y="294"/>
      <point x="152" y="294" type="curve" smooth="yes"/>
      <point x="204" y="294"/>
      <point x="225" y="317"/>
      <point x="225" y="360" type="curve" smooth="yes"/>
      <point x="225" y="403"/>
      <point x="204" y="426"/>
    </contour>
  </outline>
</glyph>
<glyph name="degree" format="1">
  <advance width="340"/>
  <unicode hex="00B0"/>
  <outline>
    <contour>
      <point x="50" y="562"/>
      <point x="94" y="513"/>
      <point x="169" y="513" type="curve"/>
      <point x="245" y="513"/>
      <point x="290" y="562"/>
      <point x="290" y="628" type="curve" smooth="yes"/>
      <point x="290" y="694"/>
      <point x="245" y="743"/>
      <point x="169" y="743" type="curve" smooth="yes"/>
      <point x="94" y="743"/>
      <point x="50" y="694"/>
      <point x="50" y="628" type="curve" smooth="yes"/>
    </contour>
    <contour>
      <point x="113" y="664"/>
      <point x="134" y="688"/>
      <point x="169" y="688" type="curve"/>
      <point x="206" y="688"/>
      <point x="227" y="664"/>
      <point x="227" y="628" type="curve" smooth="yes"/>
      <point x="227" y="592"/>
      <point x="206" y="568"/>
      <point x="169" y="568" type="curve"/>
      <point x="134" y="568"/>
      <point x="113" y="592"/>
      <point x="113" y="628" type="curve" smooth="yes"/>
    </contour>
  </outline>
</glyph>
<glyph name="acute" format="1">
  <advance width="264"/>
  <unicode hex="00B4"/>
  <outline>
    <contour>
      <point x="227" y="751" type="line"/>
      <point x="126" y="589" type="line"/>
      <point x="42" y="589" type="line"/>
      <point x="42" y="589"/>
      <point x="99" y="751"/>
      <point x="99" y="751" type="curve"/>
    </contour>
  </outline>
</glyph>
<glyph name="cedilla" format="1">
  <advance width="372"/>
  <unicode hex="00B8"/>
  <outline>
    <contour>
      <point x="185" y="-112" type="line"/>
      <point x="197" y="22" type="line"/>
      <point x="119" y="22" type="line"/>
      <point x="108" y="-167" type="line"/>
      <point x="133" y="-158"/>
      <point x="166" y="-153"/>
      <point x="190" y="-153" type="curve" smooth="yes"/>
      <point x="236" y="-153"/>
      <point x="261" y="-164"/>
      <point x="261" y="-191" type="curve" smooth="yes"/>
      <point x="261" y="-232"/>
      <point x="237" y="-241"/>
      <point x="183" y="-241" type="curve" smooth="yes"/>
      <point x="157" y="-241"/>
      <point x="131" y="-237"/>
      <point x="109" y="-233" type="curve"/>
      <point x="109" y="-289" type="line"/>
      <point x="131" y="-292"/>
      <point x="156" y="-295"/>
      <point x="185" y="-295" type="curve" smooth="yes"/>
      <point x="283" y="-295"/>
      <point x="343" y="-275"/>
      <point x="343" y="-191" type="curve" smooth="yes"/>
      <point x="343" y="-121"/>
      <point x="287" y="-92"/>
      <point x="217" y="-92" type="curve" smooth="yes"/>
      <point x="191" y="-92"/>
      <point x="155" y="-95"/>
      <point x="137" y="-102" type="curve"/>
    </contour>
  </outline>
</glyph>
<glyph name="questiondown" format="1">
  <advance width="500"/>
  <unicode hex="00BF"/>
  <outline>
    <contour>
      <point x="209" y="426" type="curve" smooth="yes"/>
      <point x="264" y="426"/>
      <point x="286" y="402"/>
      <point x="286" y="356" type="curve" smooth="yes"/>
      <point x="286" y="310"/>
      <point x="264" y="286"/>
      <point x="209" y="286" type="curve" smooth="yes"/>
      <point x="153" y="286"/>
      <point x="134" y="310"/>
      <point x="134" y="356" type="curve" smooth="yes"/>
      <point x="134" y="402"/>
      <point x="153" y="426"/>
    </contour>
    <contour>
      <point x="70" y="-271" type="line"/>
      <point x="113" y="-304"/>
      <point x="169" y="-331"/>
      <point x="249" y="-331" type="curve" smooth="yes"/>
      <point x="374" y="-331"/>
      <point x="438" y="-257"/>
      <point x="438" y="-144" type="curve" smooth="yes"/>
      <point x="438" y="-59"/>
      <point x="396" y="-13"/>
      <point x="330" y="31" type="curve" smooth="yes"/>
      <point x="279" y="65"/>
      <point x="262" y="84"/>
      <point x="262" y="155" type="curve" smooth="yes"/>
      <point x="262" y="208" type="line"/>
      <point x="154" y="208" type="line"/>
      <point x="154" y="158" type="line" smooth="yes"/>
      <point x="154" y="80"/>
      <point x="154" y="33"/>
      <point x="226" y="-18" type="curve" smooth="yes"/>
      <point x="294" y="-66"/>
      <point x="333" y="-79"/>
      <point x="333" y="-144" type="curve" smooth="yes"/>
      <point x="333" y="-201"/>
      <point x="299" y="-229"/>
      <point x="230" y="-229" type="curve" smooth="yes"/>
      <point x="168" y="-229"/>
      <point x="114" y="-204"/>
      <point x="70" y="-148" type="curve"/>
      <point x="62" y="-148" type="line"/>
      <point x="62" y="-263" type="line"/>
    </contour>
  </outline>
</glyph>
<glyph name="AE" format="1">
  <advance width="766"/>
  <unicode hex="00C6"/>
  <outline>
    <contour>
      <point x="707" y="614"/>
      <point x="707" y="706"/>
      <point x="707" y="706" type="curve"/>
      <point x="445" y="706" type="line"/>
      <point x="445" y="706"/>
      <point x="445" y="614"/>
      <point x="445" y="614" type="curve"/>
      <point x="707" y="614" type="line"/>
    </contour>
    <contour>
      <point x="453" y="0"/>
      <point x="453" y="706"/>
      <point x="453" y="706" type="curve"/>
      <point x="350" y="706" type="line"/>
      <point x="350" y="706"/>
      <point x="350" y="0"/>
      <point x="350" y="0" type="curve"/>
      <point x="453" y="0" type="line"/>
    </contour>
    <contour>
      <point x="719" y="0"/>
      <point x="719" y="92"/>
      <point x="719" y="92" type="curve"/>
      <point x="445" y="92" type="line"/>
      <point x="445" y="92"/>
      <point x="445" y="0"/>
      <point x="445" y="0" type="curve"/>
      <point x="719" y="0" type="line"/>
    </contour>
    <contour>
      <point x="682" y="308"/>
      <point x="682" y="398"/>
      <point x="682" y="398" type="curve"/>
      <point x="445" y="398" type="line"/>
      <point x="445" y="398"/>
      <point x="445" y="308"/>
      <point x="445" y="308" type="curve"/>
      <point x="682" y="308" type="line"/>
    </contour>
    <contour>
      <point x="91" y="0" type="line"/>
      <point x="356" y="685" type="line"/>
      <point x="349" y="685" type="line"/>
      <point x="361" y="630" type="line"/>
      <point x="361" y="630"/>
      <point x="442" y="706"/>
      <point x="442" y="706" type="curve"/>
      <point x="263" y="706" type="line"/>
      <point x="-13" y="0" type="line"/>
    </contour>
    <contour>
      <point x="407" y="245" type="line"/>
      <point x="83" y="245" type="line"/>
      <point x="83" y="159" type="line"/>
      <point x="407" y="159" type="line"/>
    </contour>
  </outline>
</glyph>
<glyph name="Egrave" format="1">
  <advance width="496"/>
  <unicode hex="00C8"/>
  <outline>
    <contour>
      <point x="449" y="92"/>
      <point x="449" y="0"/>
      <point x="449" y="0" type="curve"/>
      <point x="175" y="0" type="line"/>
      <point x="175" y="0"/>
      <point x="175" y="92"/>
      <point x="175" y="92" type="curve"/>
      <point x="449" y="92" type="line"/>
    </contour>
    <contour>
      <point x="183" y="706"/>
      <point x="183" y="0"/>
      <point x="183" y="0" type="curve"/>
      <point x="80" y="0" type="line"/>
      <point x="80" y="0"/>
      <point x="80" y="706"/>
      <point x="80" y="706" type="curve"/>
      <point x="183" y="706" type="line"/>
    </contour>
    <contour>
      <point x="412" y="398"/>
      <point x="412" y="308"/>
      <point x="412" y="308" type="curve"/>
      <point x="175" y="308" type="line"/>
      <point x="175" y="308"/>
      <point x="175" y="398"/>
      <point x="175" y="398" type="curve"/>
      <point x="412" y="398" type="line"/>
    </contour>
    <contour>
      <point x="437" y="706"/>
      <point x="437" y="614"/>
      <point x="437" y="614" type="curve"/>
      <point x="175" y="614" type="line"/>
      <point x="175" y="614"/>
      <point x="175" y="706"/>
      <point x="175" y="706" type="curve"/>
      <point x="437" y="706" type="line"/>
    </contour>
    <component base="grave" xOffset="89" yOffset="177"/>
  </outline>
</glyph>
<glyph name="Eth" format="1">
  <advance width="622"/>
  <unicode hex="00D0"/>
  <outline>
    <contour>
      <point x="337" y="410"/>
      <point x="337" y="322"/>
      <point x="337" y="322" type="curve"/>
      <point x="-12" y="322" type="line"/>
      <point x="-12" y="322"/>
      <point x="-12" y="410"/>
      <point x="-12" y="410" type="curve"/>
      <point x="337" y="410" type="line"/>
    </contour>
    <component base="D"/>
  </outline>
</glyph>
<glyph name="Ocircumflex" format="1">
  <advance width="648"/>
  <unicode hex="00D4"/>
  <outline>
    <contour>
      <point x="262" y="856" type="line"/>
      <point x="390" y="856" type="line"/>
      <point x="485" y="713" type="line"/>
      <point x="403" y="713" type="line"/>
      <point x="311" y="830" type="line"/>
      <point x="341" y="830" type="line"/>
      <point x="249" y="713" type="line"/>
      <point x="167" y="713" type="line"/>
    </contour>
    <component base="O"/>
  </outline>
</glyph>
<glyph name="Oslash" format="1">
  <advance width="648"/>
  <unicode hex="00D8"/>
  <outline>
    <contour>
      <point x="582" y="736" type="line"/>
      <point x="159" y="-65" type="line"/>
      <point x="75" y="-26" type="line"/>
      <point x="498" y="775" type="line"/>
    </contour>
    <component base="O"/>
  </outline>
</glyph>
<glyph name="Ucircumflex" format="1">
  <advance width="620"/>
  <unicode hex="00DB"/>
  <outline>
    <contour>
      <point x="246" y="842" type="line"/>
      <point x="374" y="842" type="line"/>
      <point x="469" y="699" type="line"/>
      <point x="387" y="699" type="line"/>
      <point x="295" y="816" type="line"/>
      <point x="325" y="816" type="line"/>
      <point x="233" y="699" type="line"/>
      <point x="151" y="699" type="line"/>
    </contour>
    <component base="U"/>
  </outline>
</glyph>
<glyph name="Thorn" format="1">
  <advance width="616"/>
  <unicode hex="00DE"/>
  <outline>
    <contour>
      <point x="157" y="607" type="line"/>
      <point x="157" y="524" type="line"/>
      <point x="328" y="524" type="line"/>
      <point x="426" y="524"/>
      <point x="460" y="490"/>
      <point x="460" y="424" type="curve"/>
      <point x="460" y="348"/>
      <point x="427" y="324"/>
      <point x="328" y="324" type="curve"/>
      <point x="150" y="324" type="line"/>
      <point x="150" y="241" type="line"/>
      <point x="330" y="241" type="line"/>
      <point x="473" y="241"/>
      <point x="556" y="289"/>
      <point x="556" y="424" type="curve" smooth="yes"/>
      <point x="556" y="559"/>
      <point x="472" y="607"/>
      <point x="330" y="607" type="curve"/>
    </contour>
    <contour>
      <point x="84" y="61" type="line"/>
      <point x="184" y="61" type="line"/>
      <point x="184" y="787" type="line"/>
      <point x="184" y="787"/>
      <point x="84" y="787"/>
      <point x="84" y="787" type="curve"/>
    </contour>
  </outline>
</glyph>
<glyph name="agrave" format="1">
  <advance width="469"/>
  <unicode hex="00E0"/>
  <outline>
    <contour>
      <point x="341" y="305" type="line"/>
      <point x="299" y="316"/>
      <point x="263" y="324"/>
      <point x="207" y="324" type="curve" smooth="yes"/>
      <point x="100" y="324"/>
      <point x="32" y="273"/>
      <point x="32" y="167" type="curve" smooth="yes"/>
      <point x="32" y="53"/>
      <point x="93" y="-12"/>
      <point x="180" y="-12" type="curve" smooth="yes"/>
      <point x="252" y="-12"/>
      <point x="304" y="26"/>
      <point x="329" y="61" type="curve"/>
      <point x="324" y="94" type="line"/>
      <point x="309" y="117" type="line"/>
      <point x="284" y="92"/>
      <point x="248" y="69"/>
      <point x="207" y="69" type="curve"/>
      <point x="154" y="69"/>
      <point x="134" y="106"/>
      <point x="134" y="167" type="curve"/>
      <point x="134" y="233"/>
      <point x="162" y="254"/>
      <point x="235" y="254" type="curve" smooth="yes"/>
      <point x="271" y="254"/>
      <point x="303" y="246"/>
      <point x="341" y="246" type="curve"/>
    </contour>
    <contour>
      <point x="172" y="538"/>
      <point x="127" y="527"/>
      <point x="86" y="517" type="curve"/>
      <point x="86" y="416" type="line"/>
      <point x="123" y="436"/>
      <point x="161" y="451"/>
      <point x="211" y="451" type="curve" smooth="yes"/>
      <point x="274" y="451"/>
      <point x="300" y="423"/>
      <point x="300" y="349" type="curve"/>
      <point x="300" y="129" type="line" smooth="yes"/>
      <point x="300" y="125"/>
      <point x="301" y="107"/>
      <point x="301" y="100" type="curve"/>
      <point x="324" y="80" type="line"/>
      <point x="329" y="58"/>
      <point x="321" y="33"/>
      <point x="327" y="0" type="curve"/>
      <point x="417" y="0" type="line"/>
      <point x="407" y="58"/>
      <point x="397" y="112"/>
      <point x="397" y="190" type="curve" smooth="yes"/>
      <point x="397" y="343" type="line" smooth="yes"/>
      <point x="397" y="473"/>
      <point x="341" y="538"/>
      <point x="230" y="538" type="curve" smooth="yes"/>
    </contour>
    <component base="grave" xOffset="68" yOffset="10"/>
  </outline>
</glyph>
<glyph name="ae" format="1">
  <advance width="755"/>
  <unicode hex="00E6"/>
  <outline>
    <contour>
      <point x="299" y="280" type="curve"/>
      <point x="299" y="193"/>
      <point x="314" y="134"/>
      <point x="345" y="86" type="curve"/>
      <point x="357" y="110" type="line"/>
      <point x="383" y="29"/>
      <point x="453" y="-12"/>
      <point x="540" y="-12" type="curve" smooth="yes"/>
      <point x="590" y="-12"/>
      <point x="641" y="1"/>
      <point x="682" y="20" type="curve"/>
      <point x="682" y="117" type="line"/>
      <point x="646" y="85"/>
      <point x="600" y="71"/>
      <point x="540" y="71" type="curve" smooth="yes"/>
      <point x="453" y="71"/>
      <point x="415" y="135"/>
      <point x="415" y="280" type="curve" smooth="yes"/>
      <point x="415" y="411"/>
      <point x="439" y="457"/>
      <point x="526" y="457" type="curve" smooth="yes"/>
      <point x="605" y="457"/>
      <point x="629" y="410"/>
      <point x="623" y="307" type="curve"/>
      <point x="623" y="307"/>
      <point x="415" y="307"/>
      <point x="415" y="307" type="curve"/>
      <point x="415" y="229" type="line"/>
      <point x="713" y="229" type="line"/>
      <point x="715" y="269" type="line" smooth="yes"/>
      <point x="723" y="433"/>
      <point x="668" y="538"/>
      <point x="526" y="538" type="curve"/>
      <point x="450" y="538"/>
      <point x="382" y="508"/>
      <point x="352" y="432" type="curve"/>
      <point x="340" y="456" type="line"/>
      <point x="313" y="414"/>
      <point x="299" y="357"/>
    </contour>
    <contour>
      <point x="341" y="305" type="line"/>
      <point x="299" y="316"/>
      <point x="264" y="324"/>
      <point x="214" y="324" type="curve" smooth="yes"/>
      <point x="110" y="324"/>
      <point x="33" y="274"/>
      <point x="33" y="167" type="curve" smooth="yes"/>
      <point x="33" y="57"/>
      <point x="87" y="-12"/>
      <point x="189" y="-12" type="curve" smooth="yes"/>
      <point x="303" y="-12"/>
      <point x="348" y="50"/>
      <point x="385" y="96" type="curve"/>
      <point x="348" y="124" type="line"/>
      <point x="305" y="113" type="line"/>
      <point x="279" y="85"/>
      <point x="245" y="69"/>
      <point x="207" y="69" type="curve"/>
      <point x="154" y="69"/>
      <point x="134" y="106"/>
      <point x="134" y="167" type="curve"/>
      <point x="134" y="232"/>
      <point x="164" y="254"/>
      <point x="242" y="254" type="curve" smooth="yes"/>
      <point x="278" y="254"/>
      <point x="320" y="246"/>
      <point x="341" y="246" type="curve"/>
    </contour>
    <contour>
      <point x="168" y="538"/>
      <point x="120" y="526"/>
      <point x="78" y="506" type="curve"/>
      <point x="78" y="406" type="line"/>
      <point x="116" y="435"/>
      <point x="158" y="451"/>
      <point x="211" y="451" type="curve" smooth="yes"/>
      <point x="274" y="451"/>
      <point x="300" y="423"/>
      <point x="300" y="349" type="curve"/>
      <point x="300" y="129" type="line" smooth="yes"/>
      <point x="300" y="125"/>
      <point x="301" y="107"/>
      <point x="301" y="100" type="curve"/>
      <point x="324" y="80" type="line"/>
      <point x="329" y="58"/>
      <point x="324" y="130"/>
      <point x="330" y="97" type="curve"/>
      <point x="409" y="123" type="line"/>
      <point x="415" y="180" type="line"/>
      <point x="415" y="343" type="line" smooth="yes"/>
      <point x="415" y="386"/>
      <point x="409" y="422"/>
      <point x="397" y="451" type="curve"/>
      <point x="375" y="431" type="line"/>
      <point x="354" y="508"/>
      <point x="306" y="538"/>
      <point x="230" y="538" type="curve" smooth="yes"/>
    </contour>
  </outline>
</glyph>
<glyph name="thorn" format="1">
  <advance width="533"/>
  <unicode hex="00FE"/>
  <outline>
    <contour>
      <point x="179" y="389" type="line"/>
      <point x="206" y="418"/>
      <point x="241" y="454"/>
      <point x="290" y="454" type="curve" smooth="yes"/>
      <point x="358" y="454"/>
      <point x="376" y="404"/>
      <point x="376" y="295" type="curve" smooth="yes"/>
      <point x="376" y="133"/>
      <point x="335" y="71"/>
      <point x="256" y="71" type="curve" smooth="yes"/>
      <point x="231" y="71"/>
      <point x="210" y="75"/>
      <point x="179" y="82" type="curve"/>
    </contour>
    <contour>
      <point x="122" y="18" type="curve"/>
      <point x="172" y="3"/>
      <point x="221" y="-12"/>
      <point x="271" y="-12" type="curve" smooth="yes"/>
      <point x="384" y="-12"/>
      <point x="479" y="84"/>
      <point x="479" y="295" type="curve" smooth="yes"/>
      <point x="479" y="466"/>
      <point x="423" y="538"/>
      <point x="315" y="538" type="curve" smooth="yes"/>
      <point x="237" y="538"/>
      <point x="172" y="475"/>
      <point x="124" y="429" type="curve"/>
      <point x="124" y="429"/>
      <point x="122" y="18"/>
    </contour>
    <contour>
      <point x="179" y="-216" type="line"/>
      <point x="179" y="706" type="line" smooth="yes"/>
      <point x="78" y="706" type="line"/>
      <point x="78" y="-216" type="line"/>
    </contour>
  </outline>
</glyph>
<glyph name="Zcaron" format="1">
  <advance width="502"/>
  <unicode hex="017D"/>
  <outline>
    <contour>
      <point x="215" y="699" type="line"/>
      <point x="343" y="699" type="line"/>
      <point x="438" y="842" type="line"/>
      <point x="356" y="842" type="line"/>
      <point x="264" y="725" type="line"/>
      <point x="294" y="725" type="line"/>
      <point x="202" y="842" type="line"/>
      <point x="120" y="842" type="line"/>
    </contour>
    <component base="Z"/>
  </outline>
</glyph>
<glyph name="caron" format="1">
  <advance width="500"/>
  <unicode hex="02C7"/>
  <outline>
    <contour>
      <point x="144" y="589" type="line"/>
      <point x="263" y="751" type="line"/>
      <point x="351" y="751" type="line"/>
      <point x="351" y="751"/>
      <point x="263" y="589"/>
      <point x="263" y="589" type="curve"/>
    </contour>
    <contour>
      <point x="214" y="589" type="line"/>
      <point x="95" y="589" type="line"/>
      <point x="95" y="589"/>
      <point x="7" y="751"/>
      <point x="7" y="751" type="curve"/>
      <point x="95" y="751" type="line"/>
    </contour>
  </outline>
</glyph>
<glyph name="breve" format="1">
  <advance width="500"/>
  <unicode hex="02D8"/>
  <outline>
    <contour>
      <point x="39" y="751" type="line"/>
      <point x="39" y="638"/>
      <point x="113" y="579"/>
      <point x="200" y="579" type="curve"/>
      <point x="287" y="579"/>
      <point x="361" y="638"/>
      <point x="361" y="751" type="curve"/>
      <point x="285" y="751" type="line"/>
      <point x="285" y="686"/>
      <point x="253" y="642"/>
      <point x="200" y="642" type="curve"/>
      <point x="147" y="642"/>
      <point x="115" y="686"/>
      <point x="115" y="751" type="curve"/>
    </contour>
  </outline>
</glyph>
<glyph name="ogonek" format="1">
  <advance width="500"/>
  <unicode hex="02DB"/>
  <outline>
    <contour>
      <point x="279" y="24" type="line"/>
      <point x="185" y="-27"/>
      <point x="108" y="-89"/>
      <point x="108" y="-174" type="curve" smooth="yes"/>
      <point x="108" y="-262"/>
      <point x="168" y="-295"/>
      <point x="266" y="-295" type="curve" smooth="yes"/>
      <point x="295" y="-295"/>
      <point x="320" y="-292"/>
      <point x="342" y="-289" type="curve"/>
      <point x="342" y="-233" type="line"/>
      <point x="320" y="-237"/>
      <point x="294" y="-241"/>
      <point x="268" y="-241" type="curve" smooth="yes"/>
      <point x="214" y="-241"/>
      <point x="190" y="-215"/>
      <point x="190" y="-174" type="curve" smooth="yes"/>
      <point x="190" y="-103"/>
      <point x="245" y="-62"/>
      <point x="334" y="-9" type="curve"/>
    </contour>
  </outline>
</glyph>
<glyph name="tilde" format="1">
  <advance width="600"/>
  <unicode hex="02DC"/>
  <outline>
    <contour>
      <point x="395" y="629" type="curve" smooth="yes"/>
      <point x="479" y="629"/>
      <point x="541" y="693"/>
      <point x="554" y="765" type="curve"/>
      <point x="466" y="765" type="line"/>
      <point x="466" y="765"/>
      <point x="458" y="714"/>
      <point x="399" y="714" type="curve" smooth="yes"/>
      <point x="331" y="714"/>
      <point x="313" y="788"/>
      <point x="216" y="788" type="curve" smooth="yes"/>
      <point x="133" y="788"/>
      <point x="70" y="723"/>
      <point x="57" y="652" type="curve"/>
      <point x="145" y="652" type="line"/>
      <point x="145" y="652"/>
      <point x="153" y="703"/>
      <point x="212" y="703" type="curve" smooth="yes"/>
      <point x="290" y="703"/>
      <point x="298" y="629"/>
    </contour>
  </outline>
</glyph>
<glyph name="mu" format="1">
  <advance width="528"/>
  <unicode hex="03BC"/>
  <outline>
    <contour>
      <point x="74" y="-216" type="line"/>
      <point x="175" y="-216" type="line"/>
      <point x="175" y="406" type="line"/>
      <point x="175" y="406"/>
      <point x="74" y="406"/>
      <point x="74" y="406" type="curve"/>
    </contour>
    <contour>
      <point x="350" y="133" type="curve"/>
      <point x="320" y="103"/>
      <point x="287" y="71"/>
      <point x="240" y="71" type="curve" smooth="yes"/>
      <point x="188" y="71"/>
      <point x="175" y="101"/>
      <point x="175" y="174" type="curve" smooth="yes"/>
      <point x="175" y="526" type="line"/>
      <point x="74" y="526" type="line"/>
      <point x="74" y="152" type="line" smooth="yes"/>
      <point x="74" y="41"/>
      <point x="125" y="-12"/>
      <point x="211" y="-12" type="curve" smooth="yes"/>
      <point x="286" y="-12"/>
      <point x="336" y="34"/>
      <point x="379" y="73" type="curve"/>
      <point x="379" y="236" type="line"/>
      <point x="350" y="236" type="line"/>
      <point x="350" y="236"/>
      <point x="350" y="133"/>
    </contour>
    <contour>
      <point x="350" y="526" type="line"/>
      <point x="350" y="102" type="line" smooth="yes"/>
      <point x="378" y="80" type="line"/>
      <point x="383" y="56"/>
      <point x="375" y="33"/>
      <point x="381" y="0" type="curve"/>
      <point x="471" y="0" type="line"/>
      <point x="463" y="50"/>
      <point x="451" y="107"/>
      <point x="451" y="177" type="curve" smooth="yes"/>
      <point x="451" y="526" type="line"/>
    </contour>
  </outline>
</glyph>
<glyph name="quoteleft" format="1">
  <advance width="274"/>
  <unicode hex="2018"/>
  <outline>
    <contour>
      <point x="142" y="503" type="curve"/>
      <point x="49" y="503" type="line"/>
      <point x="49" y="621"/>
      <point x="96" y="682"/>
      <point x="147" y="748" type="curve"/>
      <point x="232" y="748" type="line"/>
      <point x="186" y="681"/>
      <point x="142" y="631"/>
    </contour>
    <contour>
      <point x="130" y="584" type="curve" smooth="yes"/>
      <point x="189" y="584"/>
      <point x="209" y="559"/>
      <point x="209" y="510" type="curve" smooth="yes"/>
      <point x="209" y="461"/>
      <point x="189" y="436"/>
      <point x="130" y="436" type="curve" smooth="yes"/>
      <point x="72" y="436"/>
      <point x="49" y="461"/>
      <point x="49" y="510" type="curve" smooth="yes"/>
      <point x="49" y="559"/>
      <point x="72" y="584"/>
    </contour>
  </outline>
</glyph>
<glyph name="altcedilla" format="1">
  <advance width="600"/>
  <unicode hex="E416"/>
  <outline>
    <contour>
      <point x="108" y="-167" type="line"/>
      <point x="133" y="-158"/>
      <point x="166.0" y="-153.0"/>
      <point x="190.0" y="-153.0" type="curve" smooth="yes"/>
      <point x="236.0" y="-153.0"/>
      <point x="261.0" y="-164.0"/>
      <point x="261.0" y="-191.0" type="curve" smooth="yes"/>
      <point x="261.0" y="-232.0"/>
      <point x="237.0" y="-241.0"/>
      <point x="183.0" y="-241.0" type="curve" smooth="yes"/>
      <point x="157.0" y="-241.0"/>
      <point x="131.0" y="-237.0"/>
      <point x="109.0" y="-233.0" type="curve"/>
      <point x="109.0" y="-289.0" type="line"/>
      <point x="131.0" y="-292.0"/>
      <point x="156.0" y="-295.0"/>
      <point x="185.0" y="-295.0" type="curve" smooth="yes"/>
      <point x="283.0" y="-295.0"/>
      <point x="343.0" y="-275.0"/>
      <point x="343.0" y="-191.0" type="curve" smooth="yes"/>
      <point x="343.0" y="-120.0"/>
      <point x="285" y="-92"/>
      <point x="213" y="-92" type="curve" smooth="yes"/>
      <point x="171" y="-92"/>
      <point x="142" y="-98"/>
      <point x="111" y="-111" type="curve"/>
    </contour>
  </outline>
</glyph>
<glyph name="isans" format="1">
  <advance width="269"/>
  <outline>
    <contour>
      <point x="84" y="0" type="line"/>
      <point x="185" y="0" type="line"/>
      <point x="185" y="526" type="line"/>
      <point x="185" y="526"/>
      <point x="84" y="526"/>
      <point x="84" y="526" type="curve"/>
    </contour>
  </outline>
</glyph>
